<svg xmlns="http://www.w3.org/2000/svg" viewBox="0 0 1200 525" width="1200" height="525" role="img" aria-hidden="true">
  <rect width="1200" height="525" fill="#F5F8FA"/>
  <g stroke="#E3E4DE" stroke-width="3">
    <path d="M0 140 H1200"/>
    <path d="M0 270 H1200"/>
    <path d="M0 400 H1200"/>
    <path d="M240 0 V525"/>
    <path d="M560 0 V525"/>
    <path d="M880 0 V525"/>
  </g>
  <path d="M240 400 H560 V270 H880 V140" fill="none" stroke="#0C63E7" stroke-width="10" stroke-linecap="round" stroke-linejoin="round"/>
  <circle cx="240" cy="400" r="18" fill="#0C63E7"/>
  <circle cx="560" cy="270" r="14" fill="#D98A3A"/>
  <circle cx="880" cy="140" r="14" fill="#B84A4A"/>
  <rect x="620" y="330" width="300" height="120" rx="14" fill="#FFFFFF" stroke="#E3E4DE" stroke-width="3"/>
  <rect x="652" y="364" width="136" height="12" rx="6" fill="#E3E4DE"/>
  <rect x="652" y="396" width="208" height="12" rx="6" fill="#E3E4DE"/>
  <rect x="120" y="96" width="240" height="120" rx="14" fill="#FFFFFF" stroke="#E3E4DE" stroke-width="3"/>
  <rect x="152" y="128" width="104" height="12" rx="6" fill="#E3E4DE"/>
  <rect x="152" y="160" width="176" height="12" rx="6" fill="#E3E4DE"/>
</svg>
